<svg xmlns="http://www.w3.org/2000/svg" viewBox="0 0 41 41" width="41" height="41" shape-rendering="crispEdges" role="img" aria-hidden="true"><rect width="41" height="41" fill="#fff"/><path fill="#000" d="M4 4h7v1h-7zM12 4h4v1h-4zM18 4h1v1h-1zM20 4h3v1h-3zM25 4h2v1h-2zM30 4h7v1h-7zM4 5h1v1h-1zM10 5h1v1h-1zM13 5h1v1h-1zM15 5h4v1h-4zM20 5h2v1h-2zM24 5h1v1h-1zM26 5h1v1h-1zM28 5h1v1h-1zM30 5h1v1h-1zM36 5h1v1h-1zM4 6h1v1h-1zM6 6h3v1h-3zM10 6h1v1h-1zM12 6h1v1h-1zM14 6h3v1h-3zM18 6h1v1h-1zM21 6h2v1h-2zM25 6h1v1h-1zM28 6h1v1h-1zM30 6h1v1h-1zM32 6h3v1h-3zM36 6h1v1h-1zM4 7h1v1h-1zM6 7h3v1h-3zM10 7h1v1h-1zM14 7h1v1h-1zM18 7h2v1h-2zM21 7h1v1h-1zM24 7h3v1h-3zM30 7h1v1h-1zM32 7h3v1h-3zM36 7h1v1h-1zM4 8h1v1h-1zM6 8h3v1h-3zM10 8h1v1h-1zM13 8h1v1h-1zM16 8h1v1h-1zM18 8h3v1h-3zM22 8h1v1h-1zM24 8h2v1h-2zM30 8h1v1h-1zM32 8h3v1h-3zM36 8h1v1h-1zM4 9h1v1h-1zM10 9h1v1h-1zM12 9h4v1h-4zM17 9h2v1h-2zM20 9h1v1h-1zM24 9h1v1h-1zM30 9h1v1h-1zM36 9h1v1h-1zM4 10h7v1h-7zM12 10h1v1h-1zM14 10h1v1h-1zM16 10h1v1h-1zM18 10h1v1h-1zM20 10h1v1h-1zM22 10h1v1h-1zM24 10h1v1h-1zM26 10h1v1h-1zM28 10h1v1h-1zM30 10h7v1h-7zM13 11h1v1h-1zM15 11h1v1h-1zM18 11h2v1h-2zM22 11h1v1h-1zM24 11h1v1h-1zM26 11h1v1h-1zM28 11h1v1h-1zM4 12h1v1h-1zM6 12h1v1h-1zM10 12h2v1h-2zM15 12h2v1h-2zM20 12h1v1h-1zM23 12h2v1h-2zM28 12h1v1h-1zM31 12h1v1h-1zM34 12h1v1h-1zM36 12h1v1h-1zM7 13h2v1h-2zM12 13h3v1h-3zM18 13h7v1h-7zM26 13h3v1h-3zM30 13h1v1h-1zM33 13h1v1h-1zM35 13h2v1h-2zM6 14h1v1h-1zM8 14h1v1h-1zM10 14h1v1h-1zM12 14h1v1h-1zM14 14h1v1h-1zM16 14h4v1h-4zM23 14h2v1h-2zM26 14h3v1h-3zM33 14h2v1h-2zM36 14h1v1h-1zM7 15h1v1h-1zM11 15h1v1h-1zM14 15h3v1h-3zM18 15h1v1h-1zM22 15h3v1h-3zM27 15h2v1h-2zM30 15h4v1h-4zM35 15h1v1h-1zM4 16h1v1h-1zM8 16h5v1h-5zM15 16h1v1h-1zM17 16h2v1h-2zM20 16h1v1h-1zM22 16h1v1h-1zM27 16h5v1h-5zM36 16h1v1h-1zM4 17h3v1h-3zM9 17h1v1h-1zM13 17h2v1h-2zM16 17h1v1h-1zM18 17h3v1h-3zM22 17h2v1h-2zM26 17h3v1h-3zM30 17h2v1h-2zM33 17h1v1h-1zM35 17h2v1h-2zM9 18h3v1h-3zM13 18h2v1h-2zM17 18h1v1h-1zM19 18h1v1h-1zM21 18h1v1h-1zM23 18h1v1h-1zM26 18h3v1h-3zM32 18h3v1h-3zM36 18h1v1h-1zM8 19h1v1h-1zM13 19h4v1h-4zM19 19h1v1h-1zM23 19h2v1h-2zM28 19h4v1h-4zM33 19h1v1h-1zM5 20h1v1h-1zM7 20h1v1h-1zM9 20h3v1h-3zM14 20h1v1h-1zM16 20h2v1h-2zM19 20h2v1h-2zM23 20h2v1h-2zM28 20h1v1h-1zM30 20h2v1h-2zM33 20h1v1h-1zM35 20h1v1h-1zM7 21h1v1h-1zM12 21h2v1h-2zM16 21h1v1h-1zM18 21h4v1h-4zM23 21h1v1h-1zM25 21h6v1h-6zM33 21h1v1h-1zM36 21h1v1h-1zM5 22h4v1h-4zM10 22h2v1h-2zM13 22h2v1h-2zM16 22h1v1h-1zM18 22h3v1h-3zM23 22h5v1h-5zM31 22h1v1h-1zM33 22h2v1h-2zM36 22h1v1h-1zM5 23h1v1h-1zM7 23h3v1h-3zM13 23h1v1h-1zM18 23h3v1h-3zM22 23h1v1h-1zM24 23h1v1h-1zM26 23h4v1h-4zM32 23h2v1h-2zM35 23h2v1h-2zM4 24h3v1h-3zM8 24h1v1h-1zM10 24h1v1h-1zM13 24h1v1h-1zM16 24h2v1h-2zM26 24h1v1h-1zM28 24h1v1h-1zM30 24h2v1h-2zM35 24h1v1h-1zM6 25h1v1h-1zM15 25h2v1h-2zM19 25h3v1h-3zM23 25h1v1h-1zM27 25h2v1h-2zM30 25h2v1h-2zM36 25h1v1h-1zM4 26h2v1h-2zM10 26h1v1h-1zM12 26h4v1h-4zM18 26h2v1h-2zM21 26h3v1h-3zM26 26h2v1h-2zM29 26h2v1h-2zM36 26h1v1h-1zM6 27h3v1h-3zM11 27h2v1h-2zM14 27h1v1h-1zM16 27h1v1h-1zM19 27h2v1h-2zM23 27h2v1h-2zM31 27h1v1h-1zM33 27h1v1h-1zM4 28h2v1h-2zM8 28h1v1h-1zM10 28h4v1h-4zM16 28h1v1h-1zM20 28h1v1h-1zM24 28h1v1h-1zM27 28h7v1h-7zM12 29h1v1h-1zM14 29h1v1h-1zM17 29h1v1h-1zM19 29h1v1h-1zM21 29h5v1h-5zM28 29h1v1h-1zM32 29h1v1h-1zM36 29h1v1h-1zM4 30h7v1h-7zM12 30h3v1h-3zM18 30h3v1h-3zM22 30h3v1h-3zM28 30h1v1h-1zM30 30h1v1h-1zM32 30h3v1h-3zM36 30h1v1h-1zM4 31h1v1h-1zM10 31h1v1h-1zM14 31h1v1h-1zM16 31h1v1h-1zM19 31h1v1h-1zM22 31h1v1h-1zM24 31h1v1h-1zM26 31h3v1h-3zM32 31h2v1h-2zM35 31h2v1h-2zM4 32h1v1h-1zM6 32h3v1h-3zM10 32h1v1h-1zM14 32h1v1h-1zM16 32h5v1h-5zM24 32h1v1h-1zM27 32h6v1h-6zM35 32h2v1h-2zM4 33h1v1h-1zM6 33h3v1h-3zM10 33h1v1h-1zM13 33h3v1h-3zM17 33h1v1h-1zM19 33h2v1h-2zM23 33h1v1h-1zM25 33h1v1h-1zM28 33h2v1h-2zM31 33h2v1h-2zM34 33h3v1h-3zM4 34h1v1h-1zM6 34h3v1h-3zM10 34h1v1h-1zM12 34h3v1h-3zM16 34h4v1h-4zM21 34h1v1h-1zM23 34h1v1h-1zM27 34h2v1h-2zM31 34h6v1h-6zM4 35h1v1h-1zM10 35h1v1h-1zM17 35h2v1h-2zM22 35h1v1h-1zM24 35h1v1h-1zM26 35h1v1h-1zM28 35h2v1h-2zM31 35h3v1h-3zM4 36h7v1h-7zM12 36h1v1h-1zM14 36h5v1h-5zM20 36h1v1h-1zM23 36h2v1h-2zM28 36h1v1h-1zM31 36h3v1h-3zM36 36h1v1h-1z"/></svg>
