<svg xmlns="http://www.w3.org/2000/svg" viewBox="0 0 41 41" width="41" height="41" shape-rendering="crispEdges" role="img" aria-hidden="true"><rect width="41" height="41" fill="#fff"/><path fill="#000" d="M4 4h7v1h-7zM12 4h1v1h-1zM14 4h2v1h-2zM18 4h1v1h-1zM20 4h1v1h-1zM22 4h1v1h-1zM25 4h2v1h-2zM30 4h7v1h-7zM4 5h1v1h-1zM10 5h1v1h-1zM12 5h1v1h-1zM14 5h2v1h-2zM20 5h1v1h-1zM22 5h2v1h-2zM26 5h1v1h-1zM30 5h1v1h-1zM36 5h1v1h-1zM4 6h1v1h-1zM6 6h3v1h-3zM10 6h1v1h-1zM12 6h1v1h-1zM16 6h1v1h-1zM24 6h2v1h-2zM27 6h2v1h-2zM30 6h1v1h-1zM32 6h3v1h-3zM36 6h1v1h-1zM4 7h1v1h-1zM6 7h3v1h-3zM10 7h1v1h-1zM13 7h1v1h-1zM16 7h1v1h-1zM19 7h4v1h-4zM25 7h1v1h-1zM28 7h1v1h-1zM30 7h1v1h-1zM32 7h3v1h-3zM36 7h1v1h-1zM4 8h1v1h-1zM6 8h3v1h-3zM10 8h1v1h-1zM12 8h3v1h-3zM17 8h3v1h-3zM22 8h5v1h-5zM30 8h1v1h-1zM32 8h3v1h-3zM36 8h1v1h-1zM4 9h1v1h-1zM10 9h1v1h-1zM13 9h1v1h-1zM15 9h4v1h-4zM21 9h2v1h-2zM24 9h1v1h-1zM26 9h3v1h-3zM30 9h1v1h-1zM36 9h1v1h-1zM4 10h7v1h-7zM12 10h1v1h-1zM14 10h1v1h-1zM16 10h1v1h-1zM18 10h1v1h-1zM20 10h1v1h-1zM22 10h1v1h-1zM24 10h1v1h-1zM26 10h1v1h-1zM28 10h1v1h-1zM30 10h7v1h-7zM13 11h1v1h-1zM17 11h1v1h-1zM19 11h1v1h-1zM23 11h2v1h-2zM26 11h1v1h-1zM4 12h1v1h-1zM7 12h6v1h-6zM15 12h2v1h-2zM18 12h1v1h-1zM20 12h2v1h-2zM23 12h1v1h-1zM27 12h3v1h-3zM32 12h1v1h-1zM34 12h3v1h-3zM6 13h2v1h-2zM16 13h1v1h-1zM19 13h1v1h-1zM21 13h1v1h-1zM23 13h1v1h-1zM27 13h1v1h-1zM32 13h4v1h-4zM5 14h2v1h-2zM8 14h5v1h-5zM16 14h1v1h-1zM18 14h3v1h-3zM24 14h1v1h-1zM27 14h3v1h-3zM32 14h5v1h-5zM4 15h1v1h-1zM7 15h2v1h-2zM11 15h1v1h-1zM14 15h1v1h-1zM18 15h1v1h-1zM20 15h2v1h-2zM23 15h2v1h-2zM26 15h1v1h-1zM30 15h2v1h-2zM34 15h2v1h-2zM9 16h3v1h-3zM13 16h1v1h-1zM15 16h4v1h-4zM20 16h1v1h-1zM22 16h1v1h-1zM27 16h5v1h-5zM36 16h1v1h-1zM7 17h1v1h-1zM9 17h1v1h-1zM11 17h1v1h-1zM13 17h2v1h-2zM16 17h2v1h-2zM19 17h2v1h-2zM24 17h1v1h-1zM26 17h2v1h-2zM29 17h1v1h-1zM31 17h1v1h-1zM33 17h2v1h-2zM6 18h1v1h-1zM10 18h2v1h-2zM13 18h2v1h-2zM17 18h3v1h-3zM23 18h2v1h-2zM26 18h1v1h-1zM28 18h1v1h-1zM30 18h1v1h-1zM32 18h1v1h-1zM34 18h1v1h-1zM4 19h1v1h-1zM6 19h2v1h-2zM11 19h3v1h-3zM15 19h1v1h-1zM18 19h3v1h-3zM22 19h1v1h-1zM24 19h1v1h-1zM26 19h1v1h-1zM29 19h1v1h-1zM31 19h4v1h-4zM36 19h1v1h-1zM7 20h5v1h-5zM16 20h1v1h-1zM19 20h1v1h-1zM23 20h2v1h-2zM26 20h1v1h-1zM28 20h6v1h-6zM7 21h3v1h-3zM12 21h1v1h-1zM14 21h2v1h-2zM17 21h3v1h-3zM22 21h2v1h-2zM25 21h1v1h-1zM29 21h2v1h-2zM32 21h1v1h-1zM34 21h1v1h-1zM36 21h1v1h-1zM4 22h8v1h-8zM13 22h2v1h-2zM16 22h2v1h-2zM19 22h2v1h-2zM23 22h5v1h-5zM31 22h1v1h-1zM33 22h2v1h-2zM36 22h1v1h-1zM4 23h4v1h-4zM11 23h4v1h-4zM16 23h1v1h-1zM18 23h3v1h-3zM23 23h1v1h-1zM26 23h2v1h-2zM30 23h1v1h-1zM32 23h3v1h-3zM8 24h1v1h-1zM10 24h1v1h-1zM12 24h1v1h-1zM14 24h3v1h-3zM18 24h1v1h-1zM21 24h1v1h-1zM24 24h1v1h-1zM26 24h3v1h-3zM31 24h1v1h-1zM33 24h1v1h-1zM35 24h2v1h-2zM4 25h2v1h-2zM7 25h2v1h-2zM12 25h1v1h-1zM15 25h1v1h-1zM19 25h1v1h-1zM21 25h4v1h-4zM26 25h2v1h-2zM31 25h2v1h-2zM34 25h1v1h-1zM4 26h1v1h-1zM6 26h3v1h-3zM10 26h4v1h-4zM16 26h7v1h-7zM27 26h1v1h-1zM30 26h1v1h-1zM32 26h1v1h-1zM35 26h2v1h-2zM4 27h1v1h-1zM7 27h1v1h-1zM9 27h1v1h-1zM16 27h1v1h-1zM19 27h1v1h-1zM21 27h4v1h-4zM26 27h3v1h-3zM31 27h2v1h-2zM34 27h1v1h-1zM4 28h3v1h-3zM8 28h1v1h-1zM10 28h1v1h-1zM12 28h2v1h-2zM16 28h1v1h-1zM20 28h1v1h-1zM24 28h1v1h-1zM27 28h7v1h-7zM12 29h1v1h-1zM14 29h1v1h-1zM16 29h1v1h-1zM18 29h2v1h-2zM21 29h1v1h-1zM25 29h1v1h-1zM28 29h1v1h-1zM32 29h1v1h-1zM34 29h2v1h-2zM4 30h7v1h-7zM12 30h2v1h-2zM15 30h1v1h-1zM18 30h6v1h-6zM27 30h2v1h-2zM30 30h1v1h-1zM32 30h1v1h-1zM34 30h1v1h-1zM4 31h1v1h-1zM10 31h1v1h-1zM12 31h1v1h-1zM14 31h1v1h-1zM17 31h1v1h-1zM19 31h2v1h-2zM27 31h2v1h-2zM32 31h4v1h-4zM4 32h1v1h-1zM6 32h3v1h-3zM10 32h1v1h-1zM12 32h1v1h-1zM16 32h2v1h-2zM19 32h1v1h-1zM23 32h2v1h-2zM26 32h7v1h-7zM36 32h1v1h-1zM4 33h1v1h-1zM6 33h3v1h-3zM10 33h1v1h-1zM12 33h2v1h-2zM17 33h3v1h-3zM21 33h3v1h-3zM25 33h3v1h-3zM29 33h1v1h-1zM31 33h1v1h-1zM33 33h1v1h-1zM35 33h2v1h-2zM4 34h1v1h-1zM6 34h3v1h-3zM10 34h1v1h-1zM13 34h3v1h-3zM17 34h3v1h-3zM21 34h1v1h-1zM23 34h1v1h-1zM27 34h2v1h-2zM31 34h6v1h-6zM4 35h1v1h-1zM10 35h1v1h-1zM15 35h2v1h-2zM23 35h1v1h-1zM26 35h1v1h-1zM30 35h7v1h-7zM4 36h7v1h-7zM12 36h1v1h-1zM14 36h1v1h-1zM16 36h2v1h-2zM20 36h2v1h-2zM23 36h1v1h-1zM27 36h2v1h-2zM30 36h3v1h-3z"/></svg>
